<svg xmlns="http://www.w3.org/2000/svg" width="400" height="400" fill="none"><rect width="400" height="400" fill="#EAEAEA" rx="3"/><g opacity=".5"><g opacity=".5"><path fill="#FAFAFA" d="M200.236 245.5c-25.151 0-45.54-20.389-45.54-45.54s20.389-45.54 45.54-45.54c25.15 0 45.54 20.389 45.54 45.54s-20.39 45.54-45.54 45.54Z"/><path stroke="#C9C9C9" stroke-width="1" d="M200.236 245.5c-25.151 0-45.54-20.389-45.54-45.54s20.389-45.54 45.54-45.54c25.15 0 45.54 20.389 45.54 45.54s-20.39 45.54-45.54 45.54Z"/></g><path stroke="#C9C9C9" stroke-width="1" d="M200.236 218.902c-12.575 0-22.77-10.195-22.77-22.77s10.195-22.77 22.77-22.77c12.574 0 22.77 10.195 22.77 22.77s-10.196 22.77-22.77 22.77Z"/><path fill="#fff" d="M200.236 218.902c-12.575 0-22.77-10.195-22.77-22.77s10.195-22.77 22.77-22.77c12.574 0 22.77 10.195 22.77 22.77s-10.196 22.77-22.77 22.77Z"/></g></svg>